<svg xmlns="http://www.w3.org/2000/svg" viewBox="0 0 800 600" preserveAspectRatio="xMidYMid slice" role="img" aria-label="Sigma Panels and Paint">
  <defs>
    <linearGradient id="bg" x1="0" y1="0" x2="1" y2="1">
      <stop offset="0" stop-color="#2a2622"/>
      <stop offset="0.55" stop-color="#161412"/>
      <stop offset="1" stop-color="#0d0c0b"/>
    </linearGradient>
    <radialGradient id="glow" cx="0.72" cy="0.28" r="0.6">
      <stop offset="0" stop-color="#F95C4B" stop-opacity="0.28"/>
      <stop offset="0.6" stop-color="#F95C4B" stop-opacity="0.05"/>
      <stop offset="1" stop-color="#F95C4B" stop-opacity="0"/>
    </radialGradient>
    <linearGradient id="body" x1="0" y1="0" x2="0" y2="1">
      <stop offset="0" stop-color="#3a352f"/>
      <stop offset="1" stop-color="#1b1916"/>
    </linearGradient>
  </defs>

  <rect width="800" height="600" fill="url(#bg)"/>
  <rect width="800" height="600" fill="url(#glow)"/>
  <polygon points="0,0 250,0 90,600 0,600" fill="#ffffff" opacity="0.03"/>
  <g stroke="#ffffff" stroke-opacity="0.05" stroke-width="1">
    <line x1="0" y1="470" x2="800" y2="470"/>
    <line x1="0" y1="150" x2="800" y2="150"/>
  </g>

  <ellipse cx="410" cy="452" rx="285" ry="26" fill="#000000" opacity="0.35"/>

  <path d="M150,438 C158,378 214,352 292,350 C330,318 392,304 468,306 C536,308 582,326 618,354 C680,360 706,388 700,438 Z" fill="url(#body)"/>
  <path d="M330,349 C346,322 388,311 452,312 C512,313 548,325 574,349 Z" fill="#F95C4B" opacity="0.14"/>
  <path d="M170,404 C300,392 520,392 678,404" fill="none" stroke="#ffffff" stroke-opacity="0.06" stroke-width="2"/>

  <g>
    <circle cx="268" cy="440" r="50" fill="#0f0e0d"/>
    <circle cx="268" cy="440" r="27" fill="#2c2a27"/>
    <circle cx="268" cy="440" r="9" fill="#F95C4B" opacity="0.55"/>
    <circle cx="566" cy="440" r="50" fill="#0f0e0d"/>
    <circle cx="566" cy="440" r="27" fill="#2c2a27"/>
    <circle cx="566" cy="440" r="9" fill="#F95C4B" opacity="0.55"/>
  </g>

  <g transform="translate(400,532)" text-anchor="middle" font-family="Manrope, Arial, sans-serif">
    <rect x="-26" y="-34" width="52" height="3" fill="#F95C4B"/>
    <text y="0" fill="#F6F4F1" fill-opacity="0.92" font-size="26" font-weight="800" letter-spacing="8">SIGMA</text>
    <text y="24" fill="#F6F4F1" fill-opacity="0.5" font-size="12" font-weight="600" letter-spacing="5">PANELS &amp; PAINT</text>
  </g>
</svg>
